# xmcd
#
# Track frame offsets:
#	150
#	8079
#	20278
#	37276
#	49354
#	54070
#	65874
#	81359
#	94476
#	113629
#	122310
#	130166
#	145805
#	154233
#	167401
#	178380
#	192974
#	211301
#	226052
#	244473
#	253437
#	270906
#	282158
#	296509
#	311700
#	330916
#	335689
#	345578
#	352945
#
# Disc length: 4785
#
# Revision: 1
# Processed by: cddbd v1.5.1PL0 Copyright (c) Steve Scherf et al.
# Submitted via: dBpowerAMP V4.0
# Normalized: r0:TDELIM( - )
#
DISCID=b012af1d
DTITLE=Various Artist - Slam Bush - The Official Mix Tape
DYEAR=2004
DGENRE=Hip Hop
TTITLE0=Hard Knock - Intro
TTITLE1=Verbal Tec - Dear Mr. President
TTITLE2=Ak-9ine - Let My 9 Ring
TTITLE3=J Boogie f/Zion I and Duece Eclipse - You're the Murdera
TTITLE4=Vanessa German - The Patriot Act
TTITLE5=Lyrics Born - The Last Trumpet
TTITLE6=Mr Lif - Home of the Brave
TTITLE7=Fidel Rodriguez - A Message to the Youth
TTITLE8=Wyclef - If I Was President
TTITLE9=Jeru - The Frustrated Nigga
TTITLE10=Mos Def - Mathematics
TTITLE11=Vanessa German - Thank You
TTITLE12=Azem - George Bush is a Gangsta
TTITLE13=Styles P f/Infa Red and Cross - Ghetto Children
TTITLE14=Jadakiss f/2 Pac - Why Remix
TTITLE15=The Perceptionist - Memorial Day
TTITLE16=Channel Live - Mr. President
TTITLE17=Aya De Leon - A Thin Line
TTITLE18=O-Maya - Mentiroso
TTITLE19=Dave Chappelle - Black Bush
TTITLE20=Marc Bamuthi Joseph - 6 OClock Sunrise
TTITLE21=Native Guns - Funny
TTITLE22=Vanessa German - Untitled
TTITLE23=Immortal Technique - The Cause of Death
TTITLE24=Vanessa German - Shout Outs OFAAFO
TTITLE25=Rico Pabon - All of the Youth
TTITLE26=Saigon - Shok TV
TTITLE27=Wordsworth - Slam Bush
TTITLE28=Geronimo Ji Jaga - Message About Bush
EXTD=
EXTT0=
EXTT1=
EXTT2=
EXTT3=
EXTT4=
EXTT5=
EXTT6=
EXTT7=
EXTT8=
EXTT9=
EXTT10=
EXTT11=
EXTT12=
EXTT13=
EXTT14=
EXTT15=
EXTT16=
EXTT17=
EXTT18=
EXTT19=
EXTT20=
EXTT21=
EXTT22=
EXTT23=
EXTT24=
EXTT25=
EXTT26=
EXTT27=
EXTT28=
PLAYORDER=
